<svg width="154" height="50" viewBox="0 0 154 50" fill="none" xmlns="http://www.w3.org/2000/svg">
<g clip-path="url(#clip0)">
<path d="M111.854 2.58859L110.062 12.9628C104.685 9.99743 92.4466 9.29583 92.4466 14.7562C92.4466 16.9259 95.2156 18.4182 98.5531 20.2167C103.615 22.9443 109.984 26.3764 109.984 33.945C109.984 46.0364 97.0455 50.4825 88.4713 50.4825C79.8959 50.4825 74.2861 47.7536 74.2861 47.7536L76.1556 36.9091C81.2993 41.0425 96.888 42.2131 96.888 35.6609C96.888 32.908 93.8201 31.2844 90.2623 29.4015C85.3521 26.8028 79.5086 23.7101 79.5086 16.4734C79.5086 3.21138 94.3161 0.482483 100.552 0.482483C106.321 0.482483 111.854 2.58859 111.854 2.58859Z" fill="#004576"/>
<path d="M31.4245 34.5691L43.4058 1.34692H56.93L36.9374 49.6504H23.8445L12.927 7.68721C5.84149 3.4246 -0.216309 2.16352 -0.216309 2.16352L0.0147966 1.34692H19.8188C25.2698 1.34692 25.7798 5.69739 25.7798 5.69739L30.0094 27.4174L30.0081 27.4148L31.4245 34.5691Z" fill="#004576"/>
<path d="M53.9771 49.6504H66.5432L74.3982 1.34692H61.8308L53.9771 49.6504Z" fill="#004576"/>
<path fill-rule="evenodd" clip-rule="evenodd" d="M142.245 49.6504H153.784L143.723 1.34692H133.621C128.955 1.34692 127.82 4.94669 127.82 4.94669L109.08 49.6504H122.176L124.797 42.4767H140.772L142.245 49.6504ZM128.418 32.5638L135.021 14.4862L138.736 32.5638H128.418Z" fill="#004576"/>
<path fill-rule="evenodd" clip-rule="evenodd" d="M30.0094 27.4174L25.7798 5.69739C25.7798 5.69739 25.2698 1.34692 19.8188 1.34692H0.0147966L-0.216309 2.16352C-0.216309 2.16352 9.3029 4.13913 18.4348 11.5351C27.1626 18.6054 30.0094 27.4174 30.0094 27.4174Z" fill="#EE9F3F"/>
</g>
<defs>
<clipPath id="clip0">
<rect width="154" height="50" fill="white"/>
</clipPath>
</defs>
</svg>
